# xmcd
#
# Track frame offsets:
#	150
#	9470
#	18275
#	30955
#	39197
#	48907
#	55007
#	67017
#	74232
#	83020
#	91195
#	99287
#	105577
#	114797
#	124385
#	138147
#	146520
#	155359
#	166037
#	170815
#	183160
#	192677
#	198402
#	205430
#	214812
#	222480
#	231915
#	239147
#	248337
#	254382
#	263967
#	273207
#	278930
#	292360
#	303015
#	311372
#	316220
#
# Disc length: 4337 seconds
#
# Revision: 1
# Processed by: cddbd v1.5.2PL0 Copyright (c) Steve Scherf et al.
# Submitted via: audiograbber 1.82.02
#
DISCID=1310ef25
DTITLE=Various Artist - Old Fiddlers Convention (63rd Annual 1998)
DYEAR=1900
DGENRE=
TTITLE0=Indian Nation - Konnarock Critter
TTITLE1=Washington County - Jeff Michael
TTITLE2=Maggie - Mary Wolfe
TTITLE3=Grandfather's Clock - Eddie Marrs
TTITLE4=Golden Slippers - John Marler
TTITLE5=Hawks and Eagles - Craig Woodward
TTITLE6=Lonely Side of Love - The Del-Tones
TTITLE7=Redwing - Jim Miller
TTITLE8=Hamilton County Breakdown - John Hofmann
TTITLE9=Silver Bells - Will Keys Jr
TTITLE10=Mississippi Sawyer - Bobbi Roberts
TTITLE11=From Here To There - Opie Poindexter
TTITLE12=Sally Ann Johnson - Robert Shafer
TTITLE13=Cotton Eyed Joe - Wolfe Brothers
TTITLE14=The Last Time - Mark Templeton
TTITLE15=John Lovers Gone - Tim Sauls
TTITLE16=Down In The Hole - Jacky Ray
TTITLE17=Margarets Waltz - JP Fraley
TTITLE18=Streamline Cannonball - Lynn Dugger
TTITLE19=Faded Coat of Blue - Leslie Dunbar
TTITLE20=Shoo Fly - Bumride String Band
TTITLE21=Boston Boy - Ronald Inscore
TTITLE22=Golden Slippers - Fred Myers
TTITLE23=Twelfth Stree Trag - Nathan Leath
TTITLE24=Sweet Marie - Drew Smith
TTITLE25=Run-a-round - Howard Burton
TTITLE26=Walkin In The Parlor
TTITLE27=Old Joe Clark - Anniversary Band
TTITLE28=Stepback Cindy - Ike Frost
TTITLE29=Let Me Fall - Pine Ridge Boys
TTITLE30=Banjo Pickin Girl - Gree Mountain Travelers
TTITLE31=Arkansas Traveler - Albert Hash
TTITLE32=Stoney Creek - The Green Boys
TTITLE33=Rabbit In THe Log - Twin County Partners
TTITLE34=Sally Ann Johnson - Sugar Hill Boys
TTITLE35=Whoa Mule - Carolina Cutups
TTITLE36=John Henry - Blue Ridge Partners
EXTD=
EXTT0=
EXTT1=
EXTT2=
EXTT3=
EXTT4=
EXTT5=
EXTT6=
EXTT7=
EXTT8=
EXTT9=
EXTT10=
EXTT11=
EXTT12=
EXTT13=
EXTT14=
EXTT15=
EXTT16=
EXTT17=
EXTT18=
EXTT19=
EXTT20=
EXTT21=
EXTT22=
EXTT23=
EXTT24=
EXTT25=
EXTT26=
EXTT27=
EXTT28=
EXTT29=
EXTT30=
EXTT31=
EXTT32=
EXTT33=
EXTT34=
EXTT35=
EXTT36=
PLAYORDER=
